<svg data-v-fde0c5aa="" xmlns="http://www.w3.org/2000/svg" viewBox="0 0 300 300" class="iconLeft"><!----><defs data-v-fde0c5aa=""><!----></defs><rect data-v-fde0c5aa="" fill="#F6E6F0" x="0" y="0" width="300px" height="300px" class="logo-background-square"></rect><defs data-v-fde0c5aa=""><!----></defs><g data-v-fde0c5aa="" id="89009de9-7ec6-4afd-8f24-f47c959f80b0" fill="#341028" transform="matrix(3.116765703141404,0,0,3.116765703141404,122.893473345159,113.3312504324848)"><path d="M0.36 13.79L0.36 13.79L0.36 13.79Q0.36 13.33 0.55 12.87L0.55 12.87L0.55 12.87Q0.67 12.39 0.81 11.91L0.81 11.91L0.81 11.91Q0.99 11.35 1.34 11.35L1.34 11.35L1.67 11.35L1.67 11.35Q1.83 12.54 3.01 13.45L3.01 13.45L3.01 13.45Q4.14 14.35 5.36 14.35L5.36 14.35L5.36 14.35Q5.96 14.35 5.96 13.86L5.96 13.86L5.96 13.86Q5.96 13.47 5.32 12.94L5.32 12.94L5.28 12.88L5.28 12.88Q5.24 12.85 5.21 12.84L5.21 12.84L5.22 12.85L5.22 12.85Q4.58 12.59 2.37 11.35L2.37 11.35L2.37 11.35Q1.01 10.60 1.01 9.41L1.01 9.41L1.01 9.41Q1.01 8.01 2.77 6.76L2.77 6.76L2.77 6.76Q4.40 5.61 5.88 5.61L5.88 5.61L5.88 5.61Q6.82 5.61 7.38 6.17L7.38 6.17L7.38 6.17Q7.94 6.73 7.94 7.67L7.94 7.67L7.94 7.67Q7.94 8.36 7.02 9.25L7.02 9.25L7.02 9.25Q6.10 10.15 5.40 10.15L5.40 10.15L5.40 10.15Q5.40 9.94 5.50 9.51L5.50 9.51L5.50 9.51Q5.59 9.09 5.59 8.88L5.59 8.88L5.59 8.76L5.59 8.76Q5.57 8.68 5.57 8.61L5.57 8.61L5.57 8.34L5.57 8.34Q4.87 7.50 4.12 7.50L4.12 7.50L4.12 7.50Q3.07 7.50 3.07 8.41L3.07 8.41L3.07 8.41Q3.07 8.99 3.81 9.52L3.81 9.52L3.81 9.52Q4.33 9.88 5.57 10.47L5.57 10.47L5.57 10.47Q6.76 11.05 7.32 11.47L7.32 11.47L7.32 11.47Q8.19 12.12 8.19 12.85L8.19 12.85L8.19 12.94L8.19 12.94Q7.71 14.24 6.85 15.09L6.85 15.09L6.85 15.09Q5.82 16.10 4.58 16.10L4.58 16.10L4.58 16.10Q3.43 16.10 2.03 15.51L2.03 15.51L2.03 15.51Q0.36 14.81 0.36 13.79ZM9.74 12.64L9.74 12.64L9.74 11.73L9.74 11.73Q9.74 11.70 9.73 11.12L9.73 11.12L9.73 11.12Q9.73 10.96 9.73 10.82L9.73 10.82L9.73 10.82Q9.44 10.39 9.44 10.12L9.44 10.12L9.44 10.12Q9.44 9.72 10.78 9.03L10.78 9.03L10.78 9.03Q12.05 8.39 12.57 8.39L12.57 8.39L12.57 8.39Q12.57 8.55 12.43 8.83L12.43 8.83L12.43 8.83Q12.28 9.16 12.25 9.28L12.25 9.28L12.29 9.28L12.29 9.28Q12.31 9.30 12.32 9.30L12.32 9.30L12.32 9.30Q11.84 9.30 12.93 8.87L12.93 8.87L12.93 8.87Q14.01 8.44 14.28 8.44L14.28 8.44L14.28 8.44Q15.23 8.44 15.76 9.41L15.76 9.41L15.76 9.41Q16.18 10.18 16.18 11.19L16.18 11.19L16.18 11.19Q16.18 12.85 15.18 14.10L15.18 14.10L15.18 14.10Q14.08 15.44 12.46 15.44L12.46 15.44L12.39 15.44L12.39 15.44Q12.15 15.40 11.97 15.30L11.97 15.30L11.97 15.30Q11.82 15.97 11.56 17.04L11.56 17.04L11.56 17.04Q11.35 17.89 10.57 18.52L10.57 18.52L10.57 18.52Q9.52 19.36 9.31 19.36L9.31 19.36L9.13 19.36L9.13 19.36Q9.13 18.73 9.31 17.74L9.31 17.74L9.31 17.74Q9.56 16.34 9.59 16.14L9.59 16.14L9.59 16.14Q9.74 14.83 9.74 12.64ZM12.81 10.53L12.81 10.53L12.81 10.53Q12.52 10.53 12.26 10.67L12.26 10.67L12.26 10.67Q11.97 10.84 11.97 11.10L11.97 11.10L11.97 13.06L11.97 13.06Q11.97 13.51 12.49 13.86L12.49 13.86L12.49 13.86Q12.96 14.18 13.44 14.18L13.44 14.18L13.44 14.18Q13.80 14.18 14.04 13.47L14.04 13.47L14.04 13.47Q14.21 12.96 14.21 12.50L14.21 12.50L14.21 12.50Q14.21 11.80 13.86 11.21L13.86 11.21L13.86 11.21Q13.47 10.53 12.81 10.53ZM16.72 12.82L16.72 12.82L16.72 12.82Q16.72 11.07 18.05 9.75L18.05 9.75L18.05 9.75Q19.39 8.43 21.14 8.43L21.14 8.43L21.14 8.43Q21.80 8.43 22.07 8.68L22.07 8.68L22.07 8.68Q22.34 8.93 22.34 9.58L22.34 9.58L22.34 9.58Q22.34 10.50 21.29 11.28L21.29 11.28L21.29 11.28Q20.41 11.82 19.53 12.36L19.53 12.36L19.39 12.50L19.39 12.50Q19.39 12.53 19.38 12.57L19.38 12.57L19.38 12.57Q19.38 12.80 19.70 13.05L19.70 13.05L19.70 13.05Q19.96 13.26 20.23 13.34L20.23 13.34L20.30 13.34L20.30 13.34Q20.72 13.34 21.59 12.69L21.59 12.69L21.59 12.69Q22.46 12.04 22.64 12.04L22.64 12.04L22.64 12.04Q22.64 13.23 21.41 14.34L21.41 14.34L21.41 14.34Q20.17 15.46 18.97 15.46L18.97 15.46L18.97 15.46Q17.92 15.46 17.29 14.64L17.29 14.64L17.29 14.64Q16.72 13.90 16.72 12.82ZM19.25 10.12L19.25 10.12L19.25 10.12Q18.75 10.81 18.75 11.56L18.75 11.56L18.75 11.56Q19.03 11.56 19.42 11.14L19.42 11.14L19.42 11.14Q19.82 10.71 19.82 10.42L19.82 10.42L19.82 10.42Q19.82 10.11 19.46 10.11L19.46 10.11L19.36 10.11L19.36 10.11Q19.26 10.12 19.25 10.12ZM23.42 12.82L23.42 12.82L23.42 12.82Q23.42 11.07 24.76 9.75L24.76 9.75L24.76 9.75Q26.10 8.43 27.85 8.43L27.85 8.43L27.85 8.43Q28.50 8.43 28.78 8.68L28.78 8.68L28.78 8.68Q29.05 8.93 29.05 9.58L29.05 9.58L29.05 9.58Q29.05 10.50 28.00 11.28L28.00 11.28L28.00 11.28Q27.12 11.82 26.24 12.36L26.24 12.36L26.10 12.50L26.10 12.50Q26.10 12.53 26.08 12.57L26.08 12.57L26.08 12.57Q26.08 12.80 26.40 13.05L26.40 13.05L26.40 13.05Q26.67 13.26 26.94 13.34L26.94 13.34L27.01 13.34L27.01 13.34Q27.43 13.34 28.29 12.69L28.29 12.69L28.29 12.69Q29.16 12.04 29.34 12.04L29.34 12.04L29.34 12.04Q29.34 13.23 28.11 14.34L28.11 14.34L28.11 14.34Q26.88 15.46 25.68 15.46L25.68 15.46L25.68 15.46Q24.63 15.46 24.00 14.64L24.00 14.64L24.00 14.64Q23.42 13.90 23.42 12.82ZM25.96 10.12L25.96 10.12L25.96 10.12Q25.45 10.81 25.45 11.56L25.45 11.56L25.45 11.56Q25.73 11.56 26.13 11.14L26.13 11.14L26.13 11.14Q26.53 10.71 26.53 10.42L26.53 10.42L26.53 10.42Q26.53 10.11 26.17 10.11L26.17 10.11L26.07 10.11L26.07 10.11Q25.97 10.12 25.96 10.12ZM30.11 12.84L30.11 12.84L30.11 12.84Q30.11 11.16 31.36 9.58L31.36 9.58L31.36 9.58Q32.69 7.90 34.34 7.90L34.34 7.90L34.34 7.90Q34.92 7.90 35.32 8.22L35.32 8.22L35.32 8.22Q35.73 8.54 35.73 9.10L35.73 9.10L35.73 9.17L35.73 9.17Q35.45 10.02 34.61 11.13L34.61 11.13L34.61 11.13Q33.87 12.11 33.77 12.11L33.77 12.11L33.46 12.11L33.46 12.11Q33.46 11.87 33.61 11.41L33.61 11.41L33.61 11.41Q33.77 10.95 33.77 10.71L33.77 10.71L33.77 10.71Q33.77 10.30 33.51 10.01L33.51 10.01L33.51 10.01Q33.25 9.72 32.86 9.72L32.86 9.72L32.86 9.72Q32.27 9.72 32.06 10.26L32.06 10.26L32.06 10.26Q31.93 10.60 31.93 11.31L31.93 11.31L31.93 11.31Q31.93 12.17 32.38 12.66L32.38 12.66L32.38 12.66Q32.75 13.05 33.63 13.37L33.63 13.37L33.84 13.38L33.84 13.38Q33.87 13.38 34.05 13.37L34.05 13.37L35.03 12.95L35.03 12.95Q35.08 12.94 35.11 12.94L35.11 12.94L35.11 12.94Q35.32 12.94 35.32 13.37L35.32 13.37L35.32 13.37Q35.32 14.06 34.22 14.87L34.22 14.87L34.22 14.87Q33.17 15.62 32.44 15.62L32.44 15.62L32.44 15.62Q31.68 15.62 31.53 15.47L31.53 15.47L30.41 14.35L30.41 14.35Q30.11 14.06 30.11 12.84ZM37.25 13.69L37.25 6.55L37.25 6.55Q37.07 6.09 36.97 5.57L36.97 5.57L36.96 5.40L36.96 5.40Q36.96 5.38 36.97 5.29L36.97 5.29L39.49 4.17L39.94 4.17L39.94 4.17Q39.94 4.91 39.78 6.38L39.78 6.38L39.78 6.38Q39.62 7.84 39.62 8.58L39.62 8.58L39.62 8.58Q39.62 8.81 39.62 8.81L39.62 8.81L39.62 8.81Q39.63 9.21 39.63 9.18L39.63 9.18L39.63 9.63L39.77 9.77L39.77 9.77Q40.57 9.16 41.09 8.92L41.09 8.92L41.09 8.92Q41.80 8.58 42.60 8.58L42.60 8.58L42.60 8.58Q42.60 8.93 42.44 9.60L42.44 9.60L42.44 9.60Q42.28 10.26 42.28 10.61L42.28 10.61L42.28 10.61Q42.28 11.37 42.57 12.29L42.57 12.29L42.57 12.29Q42.64 12.52 42.85 12.57L42.85 12.57L42.85 12.57Q43.02 12.50 43.13 12.43L43.13 12.43L43.13 12.43Q43.27 12.31 43.57 12.08L43.57 12.08L43.57 12.08Q43.71 11.97 43.99 11.97L43.99 11.97L43.99 11.97Q43.99 13.20 43.51 14.17L43.51 14.17L43.51 14.17Q42.91 15.40 41.80 15.40L41.80 15.40L41.80 15.40Q41.72 15.40 41.56 15.39L41.56 15.39L41.56 15.39Q41.40 15.37 41.31 15.37L41.31 15.37L41.31 15.37Q40.52 14.78 40.24 13.41L40.24 13.41L40.24 13.41Q40.08 12.66 40.05 11.17L40.05 11.17L40.05 11.17Q39.63 11.68 39.63 12.66L39.63 12.66L39.63 14.25L39.63 14.25Q39.51 15.22 38.55 15.93L38.55 15.93L38.55 15.93Q37.59 16.65 36.60 16.65L36.60 16.65L36.60 16.65Q36.60 16.14 36.92 15.17L36.92 15.17L36.92 15.17Q37.25 14.20 37.25 13.69L37.25 13.69Z"></path></g><defs data-v-fde0c5aa=""><linearGradient data-v-fde0c5aa="" gradientTransform="rotate(25)" id="889a3f73-8c70-4a27-a63e-a08f131aa786" x1="0%" y1="0%" x2="100%" y2="0%"><stop data-v-fde0c5aa="" offset="0%" stop-color="#B4373D" stop-opacity="1"></stop><stop data-v-fde0c5aa="" offset="100%" stop-color="#B23ACB" stop-opacity="1"></stop></linearGradient></defs><g data-v-fde0c5aa="" id="04276775-b96a-4a30-b18c-615f044b1007" stroke="none" fill="url(#889a3f73-8c70-4a27-a63e-a08f131aa786)" transform="matrix(5.592212959348068,0,0,5.592212959348068,40,114.48665326533725)"><path d="M6.35.001A6.353 6.353 0 0 0 0 6.351 6.353 6.353 0 0 0 6.35 12.7a6.353 6.353 0 0 0 6.349-6.35A6.353 6.353 0 0 0 6.349.002zm-.516 4.363c.127 0 .233.085.254.19l.508 1.884.297-1.333c.063-.254.423-.275.508-.021l.317.89.254-.657c.085-.212.381-.212.487-.021l.317.656.275-.402c.085-.149.297-.17.403-.043l.465.445h.424c.338 0 .338.53 0 .53h-.53c-.084 0-.148-.022-.19-.085L9.305 6.1l-.338.53c-.106.168-.36.147-.466-.022l-.254-.53-.317.763c-.085.233-.424.233-.487-.021l-.233-.678-.317 1.46c-.064.255-.445.276-.508 0l-.53-1.883-.55 2.413c-.063.275-.466.275-.53-.021l-.338-1.884-.466 1.397c-.084.254-.444.233-.508-.021l-.275-1.08v.021c-.042.127-.148.212-.254.191h-.529c-.402.042-.402-.55 0-.508h.318l.211-.868a.26.26 0 0 1 .508 0l.318 1.228.508-1.503c.085-.254.444-.233.508.021l.296 1.651.508-2.18a.252.252 0 0 1 .254-.212z"></path></g><!----></svg>